<svg width="37" height="36" viewBox="0 0 37 36" fill="none" xmlns="http://www.w3.org/2000/svg">
<path d="M32.8868 25.1561C32.8868 26.1341 32.6942 27.1026 32.3199 28.0062C31.9456 28.9097 31.3971 29.7307 30.7055 30.4223C30.0139 31.1139 29.1929 31.6624 28.2894 32.0367C27.3858 32.411 26.4173 32.6036 25.4393 32.6036H11.1271C9.15188 32.6036 7.25758 31.819 5.8609 30.4223C4.46422 29.0256 3.67958 27.1313 3.67958 25.1561V10.8427C3.67958 8.86755 4.46422 6.97325 5.8609 5.57657C7.25758 4.17989 9.15188 3.39525 11.1271 3.39525H25.4393C27.4145 3.39525 29.3088 4.17989 30.7055 5.57657C32.1022 6.97325 32.8868 8.86755 32.8868 10.8427V25.1561V25.1561ZM36.2832 10.8427C36.2832 4.85437 31.4277 0 25.4382 0H11.1282C5.13758 0 0.283203 4.85437 0.283203 10.8427V25.1561C0.283203 31.1445 5.1387 36 11.1282 36H25.4382C28.3145 36 31.0729 34.8574 33.1068 32.8236C35.1406 30.7897 36.2832 28.0313 36.2832 25.155V10.8427ZM18.344 23.9265C16.8342 23.9247 15.3867 23.3242 14.3191 22.2566C13.2515 21.189 12.651 19.7415 12.6492 18.2317C12.651 16.722 13.2515 15.2745 14.3191 14.2069C15.3867 13.1393 16.8342 12.5388 18.344 12.537C19.8538 12.5385 21.3015 13.1389 22.3691 14.2066C23.4368 15.2742 24.0372 16.7219 24.0387 18.2317C24.0372 19.7416 23.4368 21.1893 22.3691 22.2569C21.3015 23.3246 19.8538 23.925 18.344 23.9265V23.9265ZM18.344 9.342C13.4423 9.342 9.4542 13.3301 9.4542 18.2317C9.4542 23.1345 13.4423 27.1215 18.344 27.1215C23.2467 27.1215 27.2348 23.1345 27.2348 18.2317C27.2348 13.3301 23.2467 9.342 18.344 9.342V9.342ZM27.7535 6.62737C27.4755 6.62737 27.2002 6.68212 26.9434 6.7885C26.6866 6.89487 26.4533 7.05079 26.2567 7.24734C26.0602 7.44389 25.9043 7.67723 25.7979 7.93404C25.6915 8.19085 25.6368 8.4661 25.6368 8.74406C25.6368 9.02203 25.6915 9.29727 25.7979 9.55408C25.9043 9.81089 26.0602 10.0442 26.2567 10.2408C26.4533 10.4373 26.6866 10.5933 26.9434 10.6996C27.2002 10.806 27.4755 10.8608 27.7535 10.8608C28.3148 10.8608 28.8532 10.6377 29.2502 10.2408C29.6471 9.84383 29.8701 9.30544 29.8701 8.74406C29.8701 8.18268 29.6471 7.64429 29.2502 7.24734C28.8532 6.85038 28.3148 6.62737 27.7535 6.62737V6.62737Z" fill="#061EF4"/>
</svg>
