<svg width="37" height="36" viewBox="0 0 37 36" fill="none" xmlns="http://www.w3.org/2000/svg">
<path d="M33.9089 0H3.22391C2.51909 0 1.84315 0.279986 1.34477 0.778364C0.846392 1.27674 0.566406 1.95269 0.566406 2.6575V33.3425C0.566406 34.0473 0.846392 34.7233 1.34477 35.2216C1.84315 35.72 2.51909 36 3.22391 36H33.9089C34.6137 36 35.2897 35.72 35.788 35.2216C36.2864 34.7233 36.5664 34.0473 36.5664 33.3425V2.6575C36.5664 1.95269 36.2864 1.27674 35.788 0.778364C35.2897 0.279986 34.6137 0 33.9089 0ZM11.2964 30.6675H5.88391V13.475H11.2964V30.6675ZM8.58641 11.0925C7.97245 11.089 7.37328 10.9038 6.86451 10.5601C6.35574 10.2165 5.96017 9.7298 5.72772 9.16153C5.49528 8.59327 5.43638 7.96889 5.55845 7.36718C5.68053 6.76548 5.97811 6.21341 6.41364 5.78067C6.84917 5.34793 7.40313 5.0539 8.00561 4.93569C8.60808 4.81748 9.23208 4.88039 9.79883 5.11648C10.3656 5.35257 10.8497 5.75125 11.1901 6.26222C11.5305 6.77319 11.7119 7.37354 11.7114 7.9875C11.7172 8.39855 11.6402 8.80656 11.4849 9.18721C11.3297 9.56785 11.0994 9.91335 10.8078 10.2031C10.5161 10.4929 10.1692 10.7209 9.78754 10.8737C9.40591 11.0265 8.99741 11.1009 8.58641 11.0925ZM31.2464 30.6825H25.8364V21.29C25.8364 18.52 24.6589 17.665 23.1389 17.665C21.5339 17.665 19.9589 18.875 19.9589 21.36V30.6825H14.5464V13.4875H19.7514V15.87H19.8214C20.3439 14.8125 22.1739 13.005 24.9664 13.005C27.9864 13.005 31.2489 14.7975 31.2489 20.0475L31.2464 30.6825Z" fill="#061EF4"/>
</svg>
