<svg width="21" height="21" viewBox="0 0 21 21" fill="none" xmlns="http://www.w3.org/2000/svg">
<path d="M19.0214 14.362C18.8751 15.4736 18.3293 16.4939 17.4857 17.2324C16.6422 17.9709 15.5586 18.377 14.4375 18.375C7.92423 18.375 2.62501 13.0758 2.62501 6.56252C2.623 5.44139 3.02916 4.35786 3.76765 3.51431C4.50613 2.67076 5.52643 2.12488 6.63798 1.97861C6.91906 1.94429 7.2037 2.00179 7.44942 2.14254C7.69513 2.28329 7.88874 2.49973 8.00134 2.75955L9.73384 6.62732V6.63717C9.82004 6.83605 9.85564 7.05319 9.83746 7.2692C9.81928 7.4852 9.74789 7.69334 9.62966 7.87502C9.61489 7.89717 9.5993 7.91767 9.5829 7.93818L7.87501 9.96271C8.48942 11.2112 9.79536 12.5057 11.0603 13.1217L13.0569 11.4229C13.0765 11.4064 13.0971 11.391 13.1184 11.3769C13.3 11.2559 13.5088 11.1819 13.7261 11.1619C13.9434 11.1418 14.1622 11.1763 14.3629 11.2621L14.3735 11.267L18.238 12.9987C18.4983 13.1109 18.7153 13.3043 18.8565 13.5501C18.9977 13.7958 19.0555 14.0807 19.0214 14.362Z" fill="#061EF4"/>
</svg>
