<svg width="78" height="75" viewBox="0 0 78 75" fill="none" xmlns="http://www.w3.org/2000/svg">
<path d="M62.5667 59.2556C62.7928 59.4733 62.9722 59.7317 63.0945 60.0161C63.2169 60.3005 63.2799 60.6053 63.2799 60.9132C63.2799 61.221 63.2169 61.5258 63.0945 61.8102C62.9722 62.0946 62.7928 62.353 62.5667 62.5707C62.3405 62.7884 62.0721 62.961 61.7766 63.0788C61.4812 63.1966 61.1645 63.2573 60.8447 63.2573C60.525 63.2573 60.2083 63.1966 59.9129 63.0788C59.6174 62.961 59.349 62.7884 59.1228 62.5707L34.7849 39.1426C34.5586 38.925 34.3791 38.6666 34.2566 38.3822C34.1341 38.0978 34.0711 37.7929 34.0711 37.485C34.0711 37.1772 34.1341 36.8723 34.2566 36.5879C34.3791 36.3035 34.5586 36.0451 34.7849 35.8275L59.1228 12.3994C59.5795 11.9598 60.1989 11.7128 60.8447 11.7128C61.4906 11.7128 62.11 11.9598 62.5667 12.3994C63.0233 12.839 63.2799 13.4352 63.2799 14.0569C63.2799 14.6786 63.0233 15.2749 62.5667 15.7145L39.9476 37.485L62.5667 59.2556ZM15.6096 37.485L38.2287 15.7145C38.6854 15.2749 38.942 14.6786 38.942 14.0569C38.942 13.4352 38.6854 12.839 38.2287 12.3994C37.772 11.9598 37.1527 11.7128 36.5068 11.7128C35.861 11.7128 35.2416 11.9598 34.7849 12.3994L10.447 35.8275C10.2207 36.0451 10.0412 36.3035 9.91868 36.5879C9.7962 36.8723 9.73315 37.1772 9.73315 37.485C9.73315 37.7929 9.7962 38.0978 9.91868 38.3822C10.0412 38.6666 10.2207 38.925 10.447 39.1426L34.7849 62.5707C35.011 62.7884 35.2795 62.961 35.5749 63.0788C35.8704 63.1966 36.187 63.2573 36.5068 63.2573C36.8266 63.2573 37.1433 63.1966 37.4387 63.0788C37.7341 62.961 38.0026 62.7884 38.2287 62.5707C38.4548 62.353 38.6342 62.0946 38.7566 61.8102C38.879 61.5258 38.942 61.221 38.942 60.9132C38.942 60.6053 38.879 60.3005 38.7566 60.0161C38.6342 59.7317 38.4548 59.4733 38.2287 59.2556L15.6096 37.485Z" fill="#FAFAFA"/>
</svg>
