<svg width="358" height="358" viewBox="0 0 358 358" fill="none" xmlns="http://www.w3.org/2000/svg">
<path fill-rule="evenodd" clip-rule="evenodd" d="M0 357.91H75.9828L357.91 75.9828V19.9102V0L0 357.91Z" fill="#100953"/>
<path fill-rule="evenodd" clip-rule="evenodd" d="M120.148 357.91L357.91 120.148V258.426L258.426 357.91H120.148Z" fill="#100953"/>
<path fill-rule="evenodd" clip-rule="evenodd" d="M357.91 101.509L335.727 123.693C327.916 131.503 315.253 131.503 307.443 123.693L268.723 84.9728C257.788 74.0378 240.059 74.0376 229.125 84.973L152.919 161.178C141.984 172.113 141.984 189.842 152.919 200.777L184.801 232.659L187.629 229.83L184.801 232.659C192.612 240.469 192.612 253.132 184.801 260.943L87.8335 357.91H99.1472L190.458 266.6C201.393 255.665 201.393 237.936 190.458 227.002L158.576 195.12C150.765 187.309 150.765 174.646 158.576 166.835L234.782 90.6297L234.782 90.6295C242.592 82.8189 255.255 82.8187 263.066 90.6297L301.786 129.35C312.72 140.284 330.449 140.284 341.384 129.35L338.555 126.521L341.384 129.35L357.91 112.823V101.509Z" fill="#77787B"/>
</svg>
