<svg width="56" height="72" viewBox="0 0 56 72" fill="none" xmlns="http://www.w3.org/2000/svg">
<rect x="0.000244141" y="55.7218" width="6.88696" height="6.88696" rx="3.44348" transform="rotate(-90 0.000244141 55.7218)" fill="#D9D9D9"/>
<rect x="16.2783" y="55.7218" width="6.88696" height="6.88696" rx="3.44348" transform="rotate(-90 16.2783 55.7218)" fill="#D9D9D9"/>
<rect x="32.5566" y="55.7218" width="6.88696" height="6.88696" rx="3.44348" transform="rotate(-90 32.5566 55.7218)" fill="#D9D9D9"/>
<rect x="0.000244141" y="65.1131" width="6.88696" height="6.88696" rx="3.44348" fill="#D9D9D9"/>
<rect x="0.000244141" y="23.1652" width="6.88696" height="6.88696" rx="3.44348" transform="rotate(-90 0.000244141 23.1652)" fill="#D9D9D9"/>
<rect x="16.2783" y="23.1652" width="6.88696" height="6.88696" rx="3.44348" transform="rotate(-90 16.2783 23.1652)" fill="#D9D9D9"/>
<rect x="32.5566" y="65.1131" width="6.88696" height="6.88696" rx="3.44348" fill="#D9D9D9"/>
<rect x="0.000244141" y="39.4435" width="6.88696" height="6.88696" rx="3.44348" transform="rotate(-90 0.000244141 39.4435)" fill="#D9D9D9"/>
<rect x="16.2783" y="39.4435" width="6.88696" height="6.88696" rx="3.44348" transform="rotate(-90 16.2783 39.4435)" fill="#D9D9D9"/>
<rect x="32.7969" y="39.2031" width="6.88696" height="6.88696" rx="3.44348" transform="rotate(-90 32.7969 39.2031)" fill="#D9D9D9"/>
<rect x="16.2783" y="65.1131" width="6.88696" height="6.88696" rx="3.44348" fill="#D9D9D9"/>
<rect x="0.000244141" y="6.88702" width="6.88696" height="6.88696" rx="3.44348" transform="rotate(-90 0.000244141 6.88702)" fill="#D9D9D9"/>
<rect x="16.2783" y="6.88702" width="6.88696" height="6.88696" rx="3.44348" transform="rotate(-90 16.2783 6.88702)" fill="#D9D9D9"/>
<rect x="48.8347" y="65.1131" width="6.88696" height="6.88696" rx="3.44348" fill="#D9D9D9"/>
<rect x="48.8347" y="48.8348" width="6.88696" height="6.88696" rx="3.44348" fill="#D9D9D9"/>
</svg>
