<svg width="368" height="330" viewBox="0 0 368 330" fill="none" xmlns="http://www.w3.org/2000/svg">
<path fill-rule="evenodd" clip-rule="evenodd" d="M257.664 330L0 72.3359V0.218231L0.130096 0.0881348L330.042 330H257.664Z" fill="#100953"/>
<path fill-rule="evenodd" clip-rule="evenodd" d="M79.1978 180.358L0 101.159V89.8457L84.8546 174.701C92.6655 182.511 105.329 182.51 113.139 174.701L142.699 145.141C153.633 134.206 171.362 134.207 182.296 145.141L179.468 147.969L182.297 145.141L367.155 330H355.842L176.64 150.798C168.829 142.987 156.165 142.988 148.356 150.798L118.796 180.358C107.861 191.292 90.1329 191.291 79.1979 180.358L82.0262 177.529L79.1978 180.358Z" fill="#77787B"/>
<path fill-rule="evenodd" clip-rule="evenodd" d="M0 114.406L215.594 330H0V114.406Z" fill="#100953"/>
</svg>
