<svg width="165" height="70" viewBox="0 0 165 70" fill="none" xmlns="http://www.w3.org/2000/svg">
<mask id="mask0_396_24" style="mask-type:luminance" maskUnits="userSpaceOnUse" x="0" y="0" width="165" height="70">
<path d="M0 69.3096L165 69.3096L165 -2.8521e-05L-3.02962e-06 -2.13087e-05L0 69.3096Z" fill="white"/>
</mask>
<g mask="url(#mask0_396_24)">
<path fill-rule="evenodd" clip-rule="evenodd" d="M140.026 48.5691C149.838 48.5691 157.792 40.8713 157.792 31.3761C157.792 21.8807 149.838 14.183 140.026 14.183C130.214 14.183 122.259 21.8807 122.259 31.3761C122.259 40.8713 130.214 48.5691 140.026 48.5691ZM140.026 41.9138C145.617 41.9138 150.15 37.1957 150.15 31.3761C150.15 25.5563 145.617 20.8384 140.026 20.8384C134.434 20.8384 129.901 25.5563 129.901 31.3761C129.901 37.1957 134.434 41.9138 140.026 41.9138ZM18.3369 48.1983C27.4102 48.1983 34.7659 40.5862 34.7659 31.196C34.7659 25.3899 31.9727 20.2362 27.6616 17.1962C21.6765 12.9755 13.3623 13.371 7.4481 19.0983L7.4481 1.92364C7.4481 1.27707 6.64478 0.415851 5.63252 0.260923C2.90921 -0.155893 0.188868 0.52809 0.188869 4.06936L0.18887 26.7689C0.18887 29.3429 0.0270812 32.2129 0.550952 34.757C2.1323 42.4374 8.7244 48.1983 16.6177 48.1983C16.934 48.1983 17.2486 48.1914 17.5614 48.1789C17.8185 48.1913 18.0769 48.1983 18.3369 48.1983ZM17.4774 41.703C23.0164 41.703 27.5069 37.0394 27.5069 31.2862C27.5069 25.533 23.0164 20.8691 17.4774 20.8691C11.9383 20.8691 7.448 25.533 7.448 31.2862C7.448 37.0394 11.9383 41.703 17.4774 41.703ZM101.031 48.1983C91.9579 48.1983 84.6022 40.5862 84.6022 31.196C84.6022 25.3898 87.3954 20.2362 91.7065 17.1962C97.6916 12.9755 106.006 13.371 111.92 19.0983L111.92 1.92363C111.92 1.27706 112.723 0.415846 113.735 0.260919C116.459 -0.155898 119.179 0.528085 119.179 4.06935L119.179 26.7688C119.179 29.3429 119.341 32.2129 118.817 34.757C117.236 42.4374 110.644 48.1983 102.75 48.1983C102.434 48.1983 102.12 48.1914 101.807 48.1789C101.549 48.1913 101.291 48.1983 101.031 48.1983ZM101.891 41.703C96.3517 41.703 91.8612 37.0394 91.8612 31.2862C91.8612 25.533 96.3517 20.8691 101.891 20.8691C107.43 20.8691 111.92 25.533 111.92 31.2862C111.92 37.0394 107.43 41.703 101.891 41.703ZM57.0213 14.1137L56.945 20.5902L53.1301 20.7967C49.4888 20.9938 47.1951 21.9831 46.066 24.385C45.8869 24.7656 45.7459 25.1843 45.6159 25.6364C45.2595 26.8765 45.225 30.3068 45.225 32.5292L45.225 47.6392L38.1484 47.6392L38.1484 31.0188C38.1484 29.3961 38.1249 27.8476 38.3559 26.2271C39.8301 15.8858 49.3641 13.6154 57.0213 14.1137ZM62.3943 14.1137L62.4706 20.5902L66.2855 20.7967C69.9268 20.9938 72.2205 21.9831 73.3496 24.385C73.5287 24.7656 73.6697 25.1843 73.7995 25.6364C73.9223 26.0626 74.0067 26.7473 74.0647 27.5528C71.5792 27.0111 68.9483 26.6446 66.5088 26.5825C61.3938 26.4528 56.5771 27.3931 53.5129 31.8066C49.8586 37.0703 51.654 44.9635 59.6512 47.178C63.234 48.1701 69.4773 48.3298 74.6667 47.586L81.2672 46.8479L81.2672 31.0188C81.2672 29.3961 81.2907 27.8476 81.0597 26.2271C79.5855 15.8858 70.0515 13.6154 62.3943 14.1137ZM63.186 41.9289C65.8593 42.4614 71.0235 42.4868 74.1906 41.7129L74.1906 33.1276C70.7499 32.122 65.1223 32.074 63.186 32.6791C60.4148 33.5449 58.6689 34.9174 58.6689 37.4121C58.6689 39.9067 60.0671 41.3078 63.186 41.9289Z" fill="#288985"/>
<path fill-rule="evenodd" clip-rule="evenodd" d="M87.7488 65.1054L87.7488 50.9928L89.3837 50.9928L89.3837 65.1054L87.7488 65.1054ZM96.2343 65.5629C94.8246 65.5629 93.6873 65.0653 92.8259 64.0701C91.9647 63.0749 91.5356 61.7625 91.5356 60.1328C91.5356 58.4897 91.9647 57.1741 92.8259 56.1856C93.6873 55.197 94.8246 54.7027 96.2343 54.7027C97.6576 54.7027 98.8016 55.197 99.6698 56.1888C100.538 57.1807 100.971 58.4964 100.971 60.1328C100.971 61.7625 100.535 63.0749 99.6631 64.0701C98.7913 65.0653 97.6507 65.5629 96.2343 65.5629ZM96.2343 64.1151C97.1502 64.1151 97.8824 63.7559 98.4304 63.0345C98.9786 62.3163 99.2544 61.348 99.2544 60.1328C99.2544 58.8984 98.982 57.9269 98.4373 57.215C97.8924 56.5065 97.1569 56.1506 96.2343 56.1506C95.2944 56.1506 94.5625 56.5033 94.0279 57.2119C93.4967 57.9204 93.2312 58.8919 93.2312 60.1328C93.2312 61.3608 93.5 62.3291 94.038 63.0441C94.5761 63.7592 95.3081 64.1151 96.2343 64.1151ZM104.017 61.1398C103.528 60.8332 103.244 60.3272 102.99 59.899C102.734 59.4668 102.606 58.9825 102.606 58.4483C102.606 57.4428 102.997 56.6054 103.784 55.9295C104.57 55.2536 105.555 54.9141 106.736 54.9141C107.175 54.9141 107.591 54.9602 107.99 55.0492C108.385 55.1383 108.773 55.28 109.146 55.4647C109.244 54.8843 109.494 54.4491 109.896 54.1525C110.286 53.8619 110.816 53.7135 111.484 53.7076L111.484 54.8787C111.074 54.8993 110.747 54.9968 110.501 55.1713C110.219 55.3657 110.045 55.6625 109.972 56.0548C110.313 56.4339 110.566 56.8197 110.729 57.2087C110.892 57.5978 110.972 58.0001 110.972 58.4122C110.972 59.421 110.584 60.2353 109.809 60.8486C109.034 61.4652 108.005 61.7717 106.715 61.7717C106.411 61.7717 105.415 61.7519 105.14 61.7091C104.344 61.9628 104.101 62.9586 105.356 63.0158L108.755 63.1706C110.339 63.2428 112.458 64.2459 112.458 66.2227C112.458 67.1359 111.976 67.8448 111.015 68.3426C110.052 68.8405 108.682 69.0911 106.907 69.0911C105.244 69.0911 103.961 68.8602 103.063 68.4019C102.164 67.9404 101.715 67.2876 101.715 66.4469C101.715 65.6074 101.94 64.1136 103.472 63.6288C102.436 62.851 102.47 61.6399 104.017 61.1398ZM106.802 56.2411C106.055 56.2411 105.454 56.4376 104.994 56.8306C104.534 57.2237 104.305 57.7366 104.305 58.3723C104.305 59.0141 104.534 59.5268 104.99 59.9138C105.447 60.3007 106.048 60.4942 106.802 60.4942C107.559 60.4942 108.164 60.3007 108.621 59.9138C109.077 59.5268 109.306 59.0141 109.306 58.3723C109.306 57.7366 109.077 57.2237 108.617 56.8306C108.157 56.4376 107.552 56.2411 106.802 56.2411ZM104.537 64.4758C104.128 64.6592 103.831 64.8667 103.646 65.0983C103.461 65.3302 103.371 65.6138 103.371 65.9423C103.371 66.544 103.682 66.9902 104.309 67.2843C104.936 67.5782 105.882 67.7234 107.149 67.7234C108.338 67.7234 109.24 67.5817 109.856 67.2981C110.472 67.0144 110.78 66.5993 110.78 66.053C110.78 65.6034 110.584 65.2679 110.197 65.0535C109.809 64.8357 109.16 64.7041 108.255 64.6592L104.537 64.4758ZM113.674 65.194L113.674 55.1065L115.251 55.1065L115.251 65.194L113.674 65.194ZM113.609 53.0667L116.828 49.4654L117.876 50.8392L114.815 53.1109L113.609 53.0667ZM118.519 62.459C119.007 63.2977 119.616 64.1569 121.203 64.157C121.868 64.157 122.405 63.9967 122.812 63.673C123.219 63.3491 123.422 63.0613 123.422 62.5405C123.422 61.7826 122.65 61.2117 121.102 60.8278C120.885 60.7743 120.717 60.7343 120.599 60.7009C119.414 60.4004 118.593 60.0331 118.145 59.5992C117.694 59.1651 117.468 58.5575 117.468 57.7763C117.468 56.8749 117.796 56.137 118.447 55.5594C119.099 54.9818 119.941 54.6948 120.981 54.6948C121.887 54.6948 122.643 54.9184 123.254 55.3658C123.718 55.7055 124.077 56.1626 124.328 56.7354L122.996 57.3631C122.604 56.6884 121.884 56.1032 120.924 56.154C119.933 56.2063 119.14 56.5761 119.073 57.5994C119.026 58.3155 119.656 58.8425 121.082 59.1851C121.449 59.2731 121.731 59.3454 121.931 59.3988C123.006 59.6792 123.775 60.0499 124.245 60.5139C124.713 60.978 124.948 61.5856 124.948 62.3434C124.948 63.2817 124.602 64.0528 123.905 64.6505C123.209 65.2514 122.31 65.5518 121.203 65.5518C120.135 65.5518 119.242 65.2915 118.527 64.774C117.958 64.3644 117.543 63.821 117.281 63.147L118.519 62.459ZM127.307 61.4075L127.307 56.238L125.652 56.238L125.652 55.1505L127.307 55.1505L127.307 52.7885L128.884 52.6369L128.884 55.1505L131.376 55.1505L131.376 56.238L128.884 56.238L128.884 61.4462C128.884 62.5562 129.01 63.2758 129.261 63.6049C129.517 63.9372 129.98 64.1018 130.661 64.1018C130.879 64.1018 131.076 64.0922 131.246 64.0695C131.42 64.0469 131.587 64.0179 131.747 63.9792L131.747 65.2182C131.522 65.27 131.298 65.3087 131.08 65.3377C130.858 65.3667 130.647 65.3797 130.44 65.3797C129.803 65.3797 129.265 65.2829 128.829 65.0924C128.393 64.8989 128.029 64.602 127.736 64.1986C127.583 63.9825 127.474 63.7017 127.406 63.3564C127.341 63.0079 127.307 62.3593 127.307 61.4075ZM133.644 65.1054L133.644 55.1505L135.2 55.1505L135.2 65.1054L133.644 65.1054ZM144.142 57.5921C143.734 56.6427 142.967 56.1891 141.92 56.1891C139.751 56.1891 138.91 58.2028 138.91 60.0718C138.91 61.9277 139.603 64.0013 141.764 64.0013C142.99 64.0013 143.899 63.3317 144.3 62.202L145.755 62.5597C145.5 63.3483 145.089 63.9815 144.52 64.4624C143.794 65.0729 142.874 65.3797 141.761 65.3797C140.369 65.3797 139.255 64.8965 138.413 63.9303C137.574 62.9641 137.155 61.6779 137.155 60.0718C137.155 58.4723 137.598 57.1862 138.49 56.2166C139.382 55.2472 140.559 54.7641 142.018 54.7641C143.072 54.7641 143.942 55.0807 144.63 55.7108C145.063 56.1084 145.396 56.605 145.628 57.1996L144.142 57.5921ZM153.99 60.2343C153.843 60.2166 153.689 60.2049 153.526 60.1989C153.362 60.193 153.123 60.1901 152.812 60.1901C151.463 60.1901 150.442 60.3668 149.748 60.7173C149.055 61.0678 148.708 61.5804 148.708 62.2607C148.708 62.7674 148.898 63.168 149.274 63.4626C149.65 63.7601 150.161 63.9074 150.809 63.9074C151.689 63.9074 152.439 63.5951 153.061 62.9706C153.679 62.3491 153.99 61.5921 153.99 60.7085L153.99 60.2343ZM153.92 65.1653L153.87 63.8375C153.425 64.794 152.425 65.2061 151.211 65.312C150.057 65.4128 148.928 65.2884 148.021 64.489C147.379 63.9243 147.058 63.1983 147.058 62.3174C147.058 61.188 147.569 60.3393 148.587 59.7682C149.608 59.197 151.116 58.913 153.116 58.913C153.355 58.913 153.532 58.913 153.653 58.9163C153.777 58.9195 153.885 58.9259 153.98 58.9324L153.99 58.3064C153.99 57.5578 153.784 56.9995 153.368 56.6348C152.953 56.2703 152.318 56.0863 151.467 56.0863C150.461 56.0863 149.434 56.3176 148.94 57.3325L147.613 56.8283C147.871 56.3007 148.216 55.7782 148.725 55.4632C149.459 55.0099 150.447 54.7825 151.687 54.7825C152.983 54.7825 153.972 55.1975 154.566 55.8249C155.16 56.4524 155.456 57.4482 155.456 58.8098L155.456 63.4167C155.456 64.0943 155.501 64.5569 155.524 65.1268L153.92 65.1653ZM134.422 53.59C135.068 53.59 135.591 53.0666 135.591 52.4208C135.591 51.7752 135.068 51.2517 134.422 51.2517C133.776 51.2517 133.253 51.7752 133.253 52.4208C133.253 53.0666 133.776 53.59 134.422 53.59Z" fill="#288985"/>
<path fill-rule="evenodd" clip-rule="evenodd" d="M151.838 8.32484C157.79 11.2557 162.498 16.3372 164.808 22.5985L158.929 24.3541C157.114 19.724 153.559 15.9793 149.101 13.7972L151.838 8.32484ZM156.556 25.063C154.948 21.1236 151.879 17.8972 147.996 16.0074L144.924 22.1522C146.882 23.2811 148.442 25.0651 149.332 27.22L156.556 25.063Z" fill="#99D420"/>
</g>
</svg>
