<svg width="165" height="146" viewBox="0 0 165 146" fill="none" xmlns="http://www.w3.org/2000/svg">
<mask id="mask0_185_88" style="mask-type:luminance" maskUnits="userSpaceOnUse" x="0" y="0" width="165" height="146">
<path d="M0 0V145.057H165V0H0Z" fill="white"/>
</mask>
<g mask="url(#mask0_185_88)">
<path d="M118.124 2.53967L109.929 26.7974C65.9748 26.5839 68.6678 84.1102 104.379 86.6973C106.942 86.8846 108.215 86.5383 104.787 86.8236C91.8165 86.7495 82.1681 82.3838 75.2872 75.9601C64.5871 65.9722 59.5519 49.9701 61.6318 35.5966C63.4634 22.9484 70.7332 11.6296 83.0549 4.87582C92.7846 -0.460171 104.695 -1.67646 118.125 2.5411" fill="#7FCC45"/>
<path d="M52.5069 15.3213L65.3675 23.2817C63.5032 27.1452 62.253 31.2931 61.6303 35.5923C59.5504 49.9664 64.5858 65.9674 75.2857 75.9558C82.134 82.3511 91.7288 86.7058 104.607 86.8182C106.962 86.8378 108.731 86.4588 111.064 85.9905C112.166 85.7695 113.451 85.5114 114.839 85.2283C108.671 87.7884 102.666 88.7871 97.0322 88.7185C82.2441 88.5399 68.0259 81.05 58.8821 69.5724C52.8601 62.0107 48.9868 52.7928 48.0025 43.029C47.0605 33.6999 48.7843 24.4394 52.5074 15.3204" fill="#009CD9"/>
<path fill-rule="evenodd" clip-rule="evenodd" d="M54.2659 62.7156L46.0454 67.5495C57.2038 87.8009 88.4886 103.966 119.31 87.1246L117.774 84.0495L112.777 85.6481C113.429 85.5174 114.12 85.378 114.837 85.231C108.669 87.7912 102.665 88.7898 97.0307 88.7213C82.2426 88.5427 68.0244 81.0528 58.8806 69.5751C57.1601 67.4157 55.6181 65.1212 54.2655 62.7159" fill="#0578B5"/>
<path fill-rule="evenodd" clip-rule="evenodd" d="M27.7258 132.846L31.1701 139.311C27.9196 143.187 22.3714 144.858 17.7433 144.974C11.4012 145.134 5.9127 142.226 2.46735 136.672C0.869479 134.079 0.0462349 131.18 0.000488281 127.905C0.000488281 124.668 0.79106 121.702 2.38639 119.026C3.98053 116.336 6.13338 114.228 8.85782 112.692C11.5802 111.146 14.5476 110.378 17.7493 110.378C21.1478 110.378 25.154 110.993 30.4694 115.499L26.3848 121.975C22.7926 118.711 19.1772 117.704 15.7349 118.622C12.4997 119.486 9.20127 122.193 9.12935 127.336C9.07599 131.204 10.6191 134.508 14.1319 136.366C18.3877 138.622 24.1145 136.49 27.7254 132.844" fill="#0578B5"/>
<path fill-rule="evenodd" clip-rule="evenodd" d="M71.324 140.011L75.4186 133.392C79.2043 136.738 81.9586 137.128 83.6312 137.128C85.1383 137.128 88.183 136.816 87.73 134.515C87.5405 133.555 86.4287 132.918 85.575 132.459C81.5523 130.299 78.2235 129.903 74.8227 126.56C73.357 125.12 72.3562 122.927 72.3562 120.801C72.3562 117.652 73.3962 115.234 75.8802 113.295C78.3717 111.35 81.1747 110.305 85.2408 110.305C89.0871 110.305 93.3676 111.732 96.2044 114.424L92.8067 121.446C90.2629 118.744 86.0716 117.994 84.0733 118.369C82.6827 118.632 81.5197 119.146 81.4882 120.633C81.4511 122.427 85.7013 123.833 86.995 124.365C89.5726 125.426 92.0249 126.34 94.3803 128.766C95.8733 130.303 96.5343 132.265 96.5343 134.642C96.5343 137.844 95.784 140.131 93.2946 142.012C90.8064 143.894 88.5087 144.917 84.2956 144.917C80.9503 144.917 78.0865 144.305 75.7244 143.068C73.3559 141.83 72.6721 141.357 71.324 139.979" fill="#0578B5"/>
<path fill-rule="evenodd" clip-rule="evenodd" d="M118.827 129.579C117.22 129.82 115.516 129.673 113.854 129.932C111.629 130.279 108.557 131.328 108.154 133.518C108.052 134.076 108.06 134.769 108.385 135.453C109.167 137.102 110.704 137.848 112.291 137.837C116.265 137.807 118.894 132.985 118.827 129.579ZM127.365 144.206H119.407V140.697C118.552 141.964 117.467 142.876 116.293 143.526C112.813 145.46 107.914 145.611 104.43 143.633C102.263 142.404 100.83 140.515 100.042 138.462C97.5127 131.84 101.178 126.626 107.459 124.492C111.059 123.27 115.351 122.828 118.734 123.237C118.696 117.988 114.611 118.016 112.28 118.236C108.751 118.571 105.975 120.315 104.593 121.256L101.183 114.821C104.853 111.834 109.277 110.451 114.06 110.451C118.912 110.451 122.123 111.522 125.196 115.228C126.037 116.242 126.629 117.389 126.947 118.681C127.264 119.971 127.365 121.051 127.365 123.473V144.206" fill="#0578B5"/>
<path fill-rule="evenodd" clip-rule="evenodd" d="M165 144.276H156.166V127.273C156.166 126.418 156.191 125.596 156.193 124.825C156.196 122.324 156.148 120.135 154.118 119.225C153.388 118.897 152.129 118.762 151.119 118.853C145.668 119.339 143.395 124.126 143.395 129.19V144.276H134.561V110.968H142.762V115.859C145.68 112.091 149.351 110.206 153.773 110.206C155.715 110.206 157.508 110.561 159.119 111.256C160.729 111.963 161.954 112.852 162.778 113.942C163.606 115.037 164.184 116.267 164.507 117.647C164.84 119.029 165 120.999 165 123.569V144.275" fill="#0578B5"/>
<path fill-rule="evenodd" clip-rule="evenodd" d="M51.2662 118.322C56.1751 118.322 60.1565 122.54 60.1565 127.745C60.1565 132.949 56.1754 137.168 51.2662 137.168C46.3562 137.168 42.3758 132.949 42.3758 127.745C42.3758 122.54 46.3559 118.322 51.2662 118.322ZM51.2662 110.433C61.0157 110.433 68.9203 118.183 68.9203 127.745C68.9203 137.306 61.0157 145.058 51.2662 145.058C41.5167 145.058 33.6121 137.306 33.6121 127.745C33.6121 118.183 41.5167 110.433 51.2662 110.433Z" fill="#0578B5"/>
</g>
</svg>
