<svg width="165" height="65" viewBox="0 0 165 65" fill="none" xmlns="http://www.w3.org/2000/svg">
<g clip-path="url(#clip0_185_110)">
<path fill-rule="evenodd" clip-rule="evenodd" d="M41.1796 64.344L77.1465 18.2993C64.5256 30.1367 53.5072 22.7167 47.4127 17.7645C46.778 17.2487 46.16 16.7457 45.5578 16.255C39.6957 11.4792 35.316 7.87278 31.3616 5.08044C19.8121 -3.07523 7.13516 -0.206651 0 5.2678L41.1796 64.344Z" fill="#00939A"/>
<path fill-rule="evenodd" clip-rule="evenodd" d="M47.4126 17.7647C53.507 22.7168 64.5255 30.1369 77.1463 18.2995L84.8349 7.30968C77.9307 0.454871 70.5462 4.29048 62.3181 8.29819C55.8719 11.4379 49.587 14.6678 45.5576 16.2552L47.4126 17.7647Z" fill="#ECB833"/>
<path fill-rule="evenodd" clip-rule="evenodd" d="M105.446 34.6111H101.45L95.7161 50.77L88.3311 34.6111L84.3347 34.6978L94.4128 56.4173H96.8459L105.446 34.6111Z" fill="#77787B"/>
<path fill-rule="evenodd" clip-rule="evenodd" d="M116.219 34.6978L107.01 56.0694L111.18 56.1563L112.831 50.8568L122.387 50.9437L123.777 56.0694H127.774L119.347 34.6978H116.219ZM117.761 39.8453L120.585 47.7077L114.707 47.7725L117.761 39.8453Z" fill="#77787B"/>
<path fill-rule="evenodd" clip-rule="evenodd" d="M134.376 35.2622L134.463 56.0696H147.624L147.581 52.681H138.068L138.112 35.3056L134.376 35.2622Z" fill="#77787B"/>
<path fill-rule="evenodd" clip-rule="evenodd" d="M164.132 46.4259V43.2984H155.792V38.4332H162.264L164.957 36.3488L165 34.9589L152.708 34.9155V55.8529H165V52.6377H155.792L155.748 46.4259H164.132Z" fill="#77787B"/>
</g>
<defs>
<clipPath id="clip0_185_110">
<rect width="165" height="64.3442" fill="white"/>
</clipPath>
</defs>
</svg>
