<svg width="31" height="31" viewBox="0 0 31 31" fill="none" xmlns="http://www.w3.org/2000/svg">
<path d="M30.5361 15.9165C30.5361 7.59916 23.8335 0.855713 15.5666 0.855713C7.29974 0.855713 0.597168 7.59916 0.597168 15.9165C0.597168 23.4337 6.07037 29.6641 13.2276 30.7937V20.27H9.42633V15.9146H13.2276V12.5993C13.2276 8.82473 15.4637 6.73882 18.8823 6.73882C20.5196 6.73882 22.2327 7.03439 22.2327 7.03439V10.7403H20.3447C18.4847 10.7403 17.9047 11.9009 17.9047 13.0926V15.9165H22.0559L21.3916 20.2709H17.9056V30.7946C25.0619 29.6641 30.5361 23.4327 30.5361 15.9165Z" fill="url(#paint0_radial_412_39)"/>
<defs>
<radialGradient id="paint0_radial_412_39" cx="0" cy="0" r="1" gradientUnits="userSpaceOnUse" gradientTransform="translate(-9.08894 -4.07892) rotate(47.4658) scale(65.1269)">
<stop stop-color="#100953"/>
<stop offset="1" stop-color="#061EF4"/>
</radialGradient>
</defs>
</svg>
