<svg width="23" height="22" viewBox="0 0 23 22" fill="none" xmlns="http://www.w3.org/2000/svg">
<path d="M20.0401 14.7112C20.0401 15.2831 19.9274 15.8495 19.7086 16.3779C19.4897 16.9063 19.1689 17.3864 18.7644 17.7908C18.36 18.1952 17.8799 18.516 17.3515 18.7349C16.8231 18.9538 16.2568 19.0664 15.6848 19.0664H7.31508C6.15999 19.0664 5.05221 18.6076 4.23544 17.7908C3.41867 16.974 2.95982 15.8663 2.95982 14.7112V6.34079C2.95982 5.1857 3.41867 4.07792 4.23544 3.26115C5.05221 2.44438 6.15999 1.98553 7.31508 1.98553H15.6848C16.8399 1.98553 17.9477 2.44438 18.7644 3.26115C19.5812 4.07792 20.0401 5.1857 20.0401 6.34079V14.7112ZM22.0263 6.34079C22.0263 2.83881 19.1868 0 15.6842 0H7.31574C3.81245 0 0.973633 2.83881 0.973633 6.34079V14.7112C0.973633 18.2132 3.81311 21.0526 7.31574 21.0526H15.6842C17.3662 21.0526 18.9793 20.3844 20.1687 19.1951C21.3581 18.0057 22.0263 16.3926 22.0263 14.7105V6.34079ZM11.5355 13.9921C10.6526 13.9911 9.80609 13.6399 9.18178 13.0155C8.55746 12.3912 8.20625 11.5448 8.20521 10.6618C8.20625 9.77892 8.55746 8.93246 9.18178 8.30814C9.80609 7.68382 10.6526 7.33262 11.5355 7.33158C12.4184 7.33245 13.265 7.68359 13.8894 8.30795C14.5137 8.93231 14.8649 9.77887 14.8657 10.6618C14.8649 11.5448 14.5137 12.3914 13.8894 13.0157C13.265 13.6401 12.4184 13.9912 11.5355 13.9921ZM11.5355 5.46316C8.66903 5.46316 6.33679 7.79539 6.33679 10.6618C6.33679 13.5289 8.66903 15.8605 11.5355 15.8605C14.4026 15.8605 16.7348 13.5289 16.7348 10.6618C16.7348 7.79539 14.4026 5.46316 11.5355 5.46316ZM17.0381 3.87566C16.8755 3.87566 16.7146 3.90767 16.5644 3.96988C16.4142 4.03209 16.2778 4.12327 16.1628 4.23821C16.0479 4.35315 15.9567 4.48961 15.8945 4.63979C15.8323 4.78997 15.8003 4.95093 15.8003 5.11349C15.8003 5.27604 15.8323 5.437 15.8945 5.58718C15.9567 5.73736 16.0479 5.87382 16.1628 5.98876C16.2778 6.10371 16.4142 6.19488 16.5644 6.25709C16.7146 6.3193 16.8755 6.35131 17.0381 6.35131C17.3664 6.35131 17.6812 6.2209 17.9134 5.98876C18.1455 5.75662 18.2759 5.44178 18.2759 5.11349C18.2759 4.78519 18.1455 4.47035 17.9134 4.23821C17.6812 4.00607 17.3664 3.87566 17.0381 3.87566Z" fill="#100953" fill-opacity="0.8"/>
</svg>
