<svg width="31" height="31" viewBox="0 0 31 31" fill="none" xmlns="http://www.w3.org/2000/svg">
<path d="M27.7393 21.6847C27.7393 22.498 27.5791 23.3034 27.2679 24.0548C26.9566 24.8063 26.5004 25.4891 25.9253 26.0642C25.3501 26.6393 24.6674 27.0955 23.9159 27.4068C23.1645 27.7181 22.3591 27.8783 21.5457 27.8783H9.64315C8.00051 27.8783 6.42514 27.2257 5.26361 26.0642C4.10209 24.9027 3.44955 23.3273 3.44955 21.6847V9.78113C3.44955 8.13849 4.10209 6.56312 5.26361 5.40159C6.42514 4.24007 8.00051 3.58753 9.64315 3.58753H21.5457C23.1884 3.58753 24.7637 4.24007 25.9253 5.40159C27.0868 6.56312 27.7393 8.13849 27.7393 9.78113V21.6847V21.6847ZM30.5639 9.78113C30.5639 4.80099 26.5259 0.763916 21.5448 0.763916H9.64409C4.66207 0.763916 0.625 4.80099 0.625 9.78113V21.6847C0.625 26.6648 4.66301 30.7028 9.64409 30.7028H21.5448C23.9368 30.7028 26.2309 29.7526 27.9223 28.0612C29.6137 26.3698 30.5639 24.0757 30.5639 21.6837V9.78113ZM15.645 20.662C14.3894 20.6606 13.1856 20.1611 12.2978 19.2733C11.4099 18.3854 10.9105 17.1817 10.909 15.9261C10.9105 14.6705 11.4099 13.4667 12.2978 12.5789C13.1856 11.6911 14.3894 11.1916 15.645 11.1901C16.9006 11.1914 18.1045 11.6907 18.9924 12.5786C19.8803 13.4665 20.3797 14.6704 20.3809 15.9261C20.3797 17.1818 19.8803 18.3857 18.9924 19.2736C18.1045 20.1614 16.9006 20.6608 15.645 20.662V20.662ZM15.645 8.53306C11.5686 8.53306 8.25193 11.8497 8.25193 15.9261C8.25193 20.0034 11.5686 23.3191 15.645 23.3191C19.7223 23.3191 23.0389 20.0034 23.0389 15.9261C23.0389 11.8497 19.7223 8.53306 15.645 8.53306V8.53306ZM23.4702 6.27548C23.2391 6.27548 23.0102 6.32101 22.7966 6.40947C22.583 6.49794 22.389 6.6276 22.2255 6.79106C22.0621 6.95452 21.9324 7.14858 21.8439 7.36215C21.7555 7.57572 21.7099 7.80462 21.7099 8.03579C21.7099 8.26696 21.7555 8.49586 21.8439 8.70943C21.9324 8.923 22.0621 9.11706 22.2255 9.28052C22.389 9.44398 22.583 9.57364 22.7966 9.66211C23.0102 9.75057 23.2391 9.7961 23.4702 9.7961C23.9371 9.7961 24.3848 9.61064 24.715 9.28052C25.0451 8.9504 25.2306 8.50266 25.2306 8.03579C25.2306 7.56893 25.0451 7.12118 24.715 6.79106C24.3848 6.46094 23.9371 6.27548 23.4702 6.27548V6.27548Z" fill="url(#paint0_radial_412_41)"/>
<defs>
<radialGradient id="paint0_radial_412_41" cx="0" cy="0" r="1" gradientUnits="userSpaceOnUse" gradientTransform="translate(0.625 0.763916) rotate(45.9935) scale(53.867)">
<stop stop-color="#100953"/>
<stop offset="1" stop-color="#061EF4"/>
</radialGradient>
</defs>
</svg>
