<svg width="31" height="31" viewBox="0 0 31 31" fill="none" xmlns="http://www.w3.org/2000/svg">
<path d="M28.3816 0.763916H2.8629C2.27676 0.763916 1.71462 0.996763 1.30015 1.41123C0.885679 1.8257 0.652832 2.38784 0.652832 2.97399V28.4927C0.652832 29.0789 0.885679 29.641 1.30015 30.0555C1.71462 30.47 2.27676 30.7028 2.8629 30.7028H28.3816C28.9678 30.7028 29.5299 30.47 29.9444 30.0555C30.3589 29.641 30.5917 29.0789 30.5917 28.4927V2.97399C30.5917 2.38784 30.3589 1.8257 29.9444 1.41123C29.5299 0.996763 28.9678 0.763916 28.3816 0.763916ZM9.57628 26.2681H5.07506V11.9702H9.57628V26.2681ZM7.32255 9.98884C6.81197 9.98596 6.31367 9.8319 5.89056 9.5461C5.46745 9.2603 5.13848 8.85556 4.94517 8.38298C4.75186 7.91039 4.70287 7.39113 4.8044 6.89073C4.90592 6.39033 5.1534 5.93121 5.5156 5.57133C5.8778 5.21145 6.3385 4.96692 6.83954 4.86861C7.34058 4.77031 7.85951 4.82262 8.33085 5.01896C8.80219 5.2153 9.2048 5.54686 9.48788 5.9718C9.77096 6.39674 9.92182 6.89601 9.92141 7.40661C9.92623 7.74845 9.86217 8.08777 9.73306 8.40433C9.60395 8.72089 9.41243 9.00821 9.16991 9.24918C8.92739 9.49015 8.63884 9.67982 8.32146 9.8069C8.00408 9.93397 7.66436 9.99585 7.32255 9.98884ZM26.1674 26.2806H21.6683V18.4694C21.6683 16.1658 20.689 15.4548 19.4249 15.4548C18.0902 15.4548 16.7803 16.461 16.7803 18.5277V26.2806H12.2791V11.9806H16.6078V13.962H16.666C17.1005 13.0825 18.6224 11.5793 20.9447 11.5793C23.4563 11.5793 26.1695 13.07 26.1695 17.4361L26.1674 26.2806Z" fill="url(#paint0_radial_412_40)"/>
<defs>
<radialGradient id="paint0_radial_412_40" cx="0" cy="0" r="1" gradientUnits="userSpaceOnUse" gradientTransform="translate(-1.98883 0.76392) rotate(41.5222) scale(56.4535)">
<stop stop-color="#100953"/>
<stop offset="1" stop-color="#061EF4"/>
</radialGradient>
</defs>
</svg>
