<svg width="165" height="135" viewBox="0 0 165 135" fill="none" xmlns="http://www.w3.org/2000/svg">
<path fill-rule="evenodd" clip-rule="evenodd" d="M124.338 122.403H127.741L124.338 112.129L124.118 111.435L120.933 122.403H124.338ZM124.338 104.691H128.75L139.433 133.779H131.082L129.506 128.423H124.338H119.106L117.656 133.779H109.431L119.516 104.691H124.338ZM97.0597 126.72C99.801 126.057 101.599 123.885 101.471 119.063C101.345 114.525 99.7056 112.415 97.0597 111.718C96.4615 111.562 95.7987 111.467 95.136 111.437H92.6469V126.909H95.0421C95.7344 126.909 96.4282 126.847 97.0597 126.72ZM97.0597 104.786C99.5795 105.039 101.659 105.764 103.489 107.024C106.924 109.608 109.508 113.58 109.665 119.25C109.508 125.903 106.2 130.092 102.574 132.109C101.029 132.867 99.2642 133.372 97.0597 133.622C95.9879 133.748 94.8519 133.779 93.5926 133.779H84.924V104.661H95.0733C95.7344 104.692 96.3972 104.722 97.0597 104.786ZM69.1327 104.692C72.1578 104.786 74.5848 105.132 76.6016 106.615C78.8712 108.379 80.038 110.805 80.038 113.863C80.038 118.401 77.6734 121.174 73.3562 122.183L81.7705 133.779H72.3467L69.1327 128.771L65.6027 123.223V133.779H57.9766V104.661H66.9903C67.7133 104.661 68.4387 104.692 69.1327 104.692ZM69.1327 118.338C71.5589 118.118 72.6318 116.89 72.6945 114.62C72.7569 112.477 71.7498 111.057 69.1327 110.805C68.5638 110.741 67.9341 110.774 67.2424 110.805H65.6027V118.275L68.0291 118.338C68.4081 118.369 68.7852 118.369 69.1327 118.338ZM140.607 104.661L140.64 122.883C140.64 129.929 144.93 133.936 152.851 133.779C160.523 133.622 164.342 130.241 165 122.945V104.661H157.297V122.069C157.484 125.012 155.982 126.86 152.851 126.953C149.94 127.016 147.998 125.481 148.249 122.069V104.661H140.607ZM34.101 133.779H53.797V127.549H41.8977V121.943H51.917V115.901H41.9298V110.984H53.797V104.661H34.101V133.779ZM22.5157 133.752L29.1538 133.748V117.091H14.8124V122.82L22.233 122.851C20.7933 125.452 18.8819 127.894 15.4706 127.861C11.7123 128.05 8.01813 124.888 7.92337 119.658C7.76667 113.992 11.7123 110.984 15.22 111.11C17.3798 111.204 19.98 112.362 20.7626 114.743L27.5562 111.518C24.676 106.728 19.98 104.284 15.4706 104.473C6.98293 104.41 0.282663 109.702 0 119.345C0 128.583 7.29782 133.748 13.5914 134.125C17.5374 134.344 20.7309 132.842 22.5157 130.556V133.752Z" fill="#0F2D56"/>
<path fill-rule="evenodd" clip-rule="evenodd" d="M40.718 6.10352e-05H124.282V83.563H40.718V6.10352e-05ZM81.4644 74.3565H75.6032V71.5766C73.4255 73.5916 70.3596 75.2022 66.1305 75.2022C54.8145 75.2022 49.1407 65.9285 49.1407 57.9342C49.1407 49.9429 54.7559 40.6428 65.9598 40.6428C77.1634 40.6428 81.4018 50.6591 81.4018 50.6591L76.3308 53.6977C76.3308 53.6977 72.8357 47.0764 66.0727 47.0764C59.312 47.0764 55.3856 52.9216 55.3856 57.9342C55.3856 62.9485 59.3705 68.7372 66.1898 68.7372C70.9137 68.7372 73.6035 65.8595 74.8096 64.0943H66.1266V57.9078H81.4644V74.3565ZM98.9959 57.9079H83.6486V74.3665H89.512V71.5843C91.6939 73.601 94.76 75.2122 98.9918 75.2122C110.316 75.2122 115.993 65.9333 115.993 57.9349C115.993 49.9382 110.373 40.6329 99.1632 40.6329C87.9531 40.6329 83.7112 50.6552 83.7112 50.6552L88.7857 53.6949C88.7857 53.6949 92.2844 47.0695 99.0486 47.0695C105.814 47.0695 109.743 52.9188 109.743 57.9349C109.743 62.9521 105.757 68.7436 98.9331 68.7436C94.2069 68.7436 91.5143 65.8642 90.3079 64.0985H98.9959V57.9079Z" fill="#0F2D56"/>
</svg>
