<svg width="166" height="41" viewBox="0 0 166 41" fill="none" xmlns="http://www.w3.org/2000/svg">
<g clip-path="url(#clip0_185_101)">
<path fill-rule="evenodd" clip-rule="evenodd" d="M0.905052 38.5407H10.0641V25.6198C10.0641 20.5625 10.0643 11.2672 17.5127 11.2672C18.9188 11.2038 20.3214 11.4608 21.6135 12.0187V2.79085C20.6967 2.56906 19.7531 2.47785 18.8107 2.51961C13.3433 2.51961 9.58299 8.05337 9.17154 11.3349H9.03655V3.34126H0.903809L0.905052 38.5407Z" fill="#043865"/>
<path fill-rule="evenodd" clip-rule="evenodd" d="M59.614 3.34131H50.4512V20.5626C50.4512 25.076 49.018 32.2531 42.3875 32.2531C36.5111 32.2531 36.4399 26.4415 36.4399 22.1346V3.34131H27.2808V25.5536C27.2808 33.4797 30.902 39.3586 39.2396 39.3586C41.4642 39.3609 43.6608 38.8576 45.6623 37.8866C47.664 36.9155 49.4187 35.5023 50.7939 33.7536H50.9327V38.5409H59.6152L59.614 3.34131Z" fill="#043865"/>
<path fill-rule="evenodd" clip-rule="evenodd" d="M68.8995 38.5407H78.0598V21.4504C78.0598 16.872 78.8092 9.62486 84.8906 9.62486C90.1568 9.62486 90.1566 14.272 90.1566 17.5574V38.5407H99.3156V21.4504C99.3156 16.872 100.064 9.62486 106.149 9.62486C111.41 9.62486 111.41 14.272 111.41 17.5574V38.5407H120.57V16.3255C120.57 8.46578 118.103 2.51924 109.428 2.51924C107.198 2.43736 104.989 2.9753 103.047 4.07335C101.105 5.17151 99.5049 6.78681 98.4255 8.73965C96.4396 4.36262 92.9553 2.51924 88.0343 2.51924C85.9493 2.5194 83.8981 3.04527 82.0704 4.04886C80.2428 5.05218 78.6977 6.50042 77.5783 8.2594H77.4408V3.34089H68.8982L68.8995 38.5407Z" fill="#043865"/>
<path fill-rule="evenodd" clip-rule="evenodd" d="M151.176 11.3539L148.798 13.3755C146.932 12.5416 144.91 12.1117 142.865 12.1143C140.659 12.136 138.486 12.649 136.503 13.6171C134.521 14.5854 132.779 15.9839 131.405 17.7108C130.032 19.4379 129.062 21.4496 128.565 23.5995C128.069 25.7491 128.058 27.9826 128.534 30.1369C126.988 27.3504 126.186 24.2122 126.206 21.0251C126.206 11.9653 131.684 4.62146 140.022 4.62146C142.303 4.68762 144.529 5.34222 146.483 6.52177C148.437 7.70128 150.054 9.36592 151.176 11.3539Z" fill="#043865"/>
<path fill-rule="evenodd" clip-rule="evenodd" d="M164.469 19.4835C164.469 24.9293 161.344 29.081 156.388 31.3382L152.183 25.2478C153.697 22.9282 154.503 20.2179 154.503 17.4478C154.421 13.4569 152.76 9.66154 149.882 6.89571C147.003 4.12989 143.144 2.61993 139.153 2.69774H139.034C141.009 2.08785 143.058 1.75103 145.124 1.69653C155.81 1.69778 164.469 10.5091 164.469 19.4835Z" fill="#043865"/>
<path fill-rule="evenodd" clip-rule="evenodd" d="M162.766 28.909C160.38 34.7459 153.52 40.1433 144.999 40.1433C135.934 40.1433 129.936 34.0287 129.936 26.4951C129.938 24.6875 130.361 22.9053 131.173 21.2899L137.434 22.6812C138.325 29.2645 145.062 34.1905 151.756 34.1905C153.85 34.0896 155.905 33.5707 157.796 32.6637C159.687 31.7565 161.376 30.4798 162.766 28.909Z" fill="#043865"/>
</g>
<defs>
<clipPath id="clip0_185_101">
<rect width="165" height="39.8815" fill="white" transform="translate(0.186523 0.97876)"/>
</clipPath>
</defs>
</svg>
