<svg width="165" height="83" viewBox="0 0 165 83" fill="none" xmlns="http://www.w3.org/2000/svg">
<path d="M165 71.8222C165 77.7914 160.047 82.6292 153.927 82.6292C147.822 82.6292 142.876 77.7914 142.876 71.8222C142.876 65.8462 147.822 61.0152 153.927 61.0152C160.047 61.0152 165 65.8462 165 71.8222Z" fill="#E98138"/>
<path d="M144.029 54.5261H163.844V-2.02363e-05H144.029V54.5261Z" fill="#438BC7"/>
<path d="M51.4368 72.2136C49.4437 77.4234 44.3193 81.1582 38.3148 81.1582C32.1226 81.1582 26.8038 77.115 25.1308 71.6671L0 0.000943362H20.9535C24.1184 9.97986 37.1783 51.2667 37.9276 55.1909H38.7858C39.4731 51.1796 52.5783 9.9631 55.7616 0.000943362H76.7218" fill="#438BC7"/>
<path d="M108.144 0.000243939V62.6061H135.499V81.1592H96.3931C91.1128 81.1592 86.8215 76.9718 86.8215 71.824V0.000243939" fill="#438BC7"/>
</svg>
