<svg width="22" height="22" viewBox="0 0 22 22" fill="none" xmlns="http://www.w3.org/2000/svg">
<path d="M20.4458 0H2.50136C2.08919 0 1.6939 0.163735 1.40245 0.455184C1.111 0.746633 0.947266 1.14192 0.947266 1.55409V19.4985C0.947266 19.9107 1.111 20.306 1.40245 20.5974C1.6939 20.8889 2.08919 21.0526 2.50136 21.0526H20.4458C20.858 21.0526 21.2533 20.8889 21.5447 20.5974C21.8362 20.306 21.9999 19.9107 21.9999 19.4985V1.55409C21.9999 1.14192 21.8362 0.746633 21.5447 0.455184C21.2533 0.163735 20.858 0 20.4458 0ZM7.22212 17.9342H4.05691V7.88012H7.22212V17.9342ZM5.63732 6.48684C5.27829 6.48482 4.92789 6.37649 4.63036 6.17551C4.33284 5.97454 4.10151 5.68994 3.96558 5.35762C3.82965 5.0253 3.7952 4.66017 3.86659 4.30829C3.93798 3.95642 4.112 3.63357 4.3667 3.38051C4.62139 3.12744 4.94535 2.9555 5.29767 2.88637C5.65 2.81724 6.01491 2.85403 6.34634 2.99209C6.67778 3.13015 6.9609 3.3633 7.15995 3.66212C7.35901 3.96093 7.46509 4.31201 7.46481 4.67105C7.46819 4.91143 7.42315 5.15003 7.33236 5.37263C7.24157 5.59523 7.1069 5.79728 6.93636 5.96672C6.76583 6.13617 6.56292 6.26954 6.33974 6.3589C6.11656 6.44826 5.87768 6.49177 5.63732 6.48684ZM18.8888 17.943H15.725V12.4503C15.725 10.8304 15.0364 10.3304 14.1476 10.3304C13.209 10.3304 12.2879 11.038 12.2879 12.4912V17.943H9.1227V7.88743H12.1666V9.2807H12.2075C12.5131 8.66228 13.5832 7.60526 15.2163 7.60526C16.9823 7.60526 18.8902 8.65351 18.8902 11.7237L18.8888 17.943Z" fill="#100953" fill-opacity="0.8"/>
</svg>
