<svg width="159" height="69" viewBox="0 0 159 69" fill="none" xmlns="http://www.w3.org/2000/svg">
<g clip-path="url(#clip0_751_550)">
<path fill-rule="evenodd" clip-rule="evenodd" d="M46.1287 8.54811L38.4672 46.4098H67.9902C68.9435 46.4098 69.6078 46.2136 69.9826 45.82C70.3566 45.4269 70.68 44.5749 70.9533 43.2629L77.2874 11.6951C77.5584 10.3848 77.5934 9.53164 77.3896 9.13864C77.1855 8.74545 76.605 8.54811 75.653 8.54811H46.1287ZM34.4825 3.04141C34.6877 2.18993 35.1293 1.48522 35.8111 0.92709C36.4911 0.371106 37.2755 0.0917969 38.1613 0.0917969H77.7973C80.521 0.0917969 82.7691 0.321527 84.5407 0.779326C86.3104 1.23878 87.6571 2.00878 88.5754 3.09051C89.4955 4.17269 90.0211 5.6152 90.1587 7.41732C90.2956 9.22109 90.0892 11.4336 89.5469 14.0548L84.1304 40.9026C83.5861 43.5919 82.8887 45.82 82.0373 47.5897C81.1847 49.3601 80.0793 50.7857 78.7169 51.8681C77.3538 52.9498 75.703 53.7216 73.7633 54.1788C71.8215 54.6382 69.4877 54.8673 66.7647 54.8673L27.1275 54.7693C26.2417 54.7693 25.5774 54.4905 25.1356 53.9328C24.6923 53.3764 24.5384 52.671 24.6754 51.8185L34.4825 3.04141Z" fill="#D9DADB"/>
<path fill-rule="evenodd" clip-rule="evenodd" d="M113.653 9.66878L111.202 21.6664H140.316C141.269 21.6664 141.933 21.4689 142.308 21.0764C142.681 20.6827 143.006 19.8318 143.279 18.5199L144.505 12.8152C144.776 11.5055 144.793 10.6523 144.556 10.2593C144.316 9.86612 143.72 9.66878 142.768 9.66878H113.653ZM94.5497 56.1836C93.664 56.1836 92.9828 55.9066 92.5066 55.349C92.0295 54.7925 91.8937 54.0872 92.0977 53.2347L102.007 4.16141C102.143 3.30944 102.552 2.60472 103.232 2.04708C103.913 1.49061 104.697 1.2113 105.582 1.2113H144.913C147.636 1.2113 149.884 1.44217 151.656 1.89935C153.426 2.35929 154.771 3.12946 155.691 4.21115C156.609 5.29223 157.136 6.73535 157.274 8.53799C157.41 10.3418 157.205 12.5542 156.661 15.1755L156.456 16.1597C155.91 18.8477 155.213 21.0764 154.363 22.8467C153.511 24.6165 152.405 26.0428 151.043 27.124C149.679 28.2057 148.029 28.9769 146.088 29.4356C144.147 29.8953 141.814 30.1243 139.091 30.1243H138.783L147.774 51.6605C148.045 52.1863 148.08 52.7417 147.876 53.3327C147.738 54.1189 147.329 54.7925 146.65 55.349C145.969 55.9066 145.152 56.1836 144.198 56.1836H138.58C138.17 56.1836 137.711 56.0366 137.201 55.742C136.689 55.4472 136.366 55.1019 136.23 54.7083V54.8076L126.014 30.1243H109.465L104.868 53.2347C104.663 54.0872 104.219 54.7925 103.539 55.349C102.858 55.9066 102.074 56.1836 101.19 56.1836H94.5497Z" fill="#D9DADB"/>
<path fill-rule="evenodd" clip-rule="evenodd" d="M74.2805 9.34235C74.2435 9.29669 74.211 9.24825 74.1731 9.20441C74.0041 9.00577 73.817 8.82056 73.6227 8.63973H75.6518C75.9433 8.63973 76.1846 8.66527 76.403 8.70274L74.2805 9.34235ZM76.0091 14.1916C75.86 12.2457 75.3105 10.6693 74.3662 9.4513L76.6813 8.76099C76.9902 8.85048 77.2038 8.98792 77.3033 9.17953C77.497 9.549 77.4602 10.3894 77.1936 11.6784L75.8998 18.1253C76.058 16.6684 76.0984 15.3541 76.0091 14.1916ZM89.4528 14.0375L84.0382 40.8841C83.4963 43.5549 82.7941 45.7962 81.9505 47.5504C81.107 49.3017 79.9992 50.7291 78.6549 51.7982C77.3082 52.8678 75.6542 53.639 73.7398 54.0893C72.2597 54.4396 70.528 54.656 68.578 54.738C68.7325 54.1123 68.8803 53.4659 69.0178 52.7899L70.6444 44.7798C70.7881 44.3722 70.9221 43.8769 71.0457 43.2795L77.3805 11.7129C77.6588 10.3656 77.6896 9.51023 77.4747 9.09805C77.2508 8.6664 76.6553 8.45683 75.6518 8.45683H73.4169C72.4125 7.5973 71.1068 6.95607 69.4927 6.53981C67.6543 6.06777 65.3693 5.80744 62.6469 5.7577L83.2913 0.603782C83.7207 0.681655 84.1323 0.768223 84.5154 0.866376C86.2597 1.32012 87.5993 2.08782 88.5001 3.1481C89.4022 4.20786 89.9283 5.64742 90.0622 7.42533C90.198 9.20668 89.9929 11.4306 89.4528 14.0375ZM64.7604 63.4125C65.4525 62.5525 66.0643 61.5827 66.5899 60.4975C67.3411 58.9465 67.9878 57.0867 68.5334 54.9221C70.5177 54.8413 72.2809 54.6232 73.785 54.2676C75.1837 53.9379 76.4405 53.4335 77.549 52.7742L64.7604 63.4125ZM61.6724 5.74673H34.0361L34.5755 3.06088C34.7746 2.23328 35.2116 1.53771 35.8735 0.995158C36.5347 0.456014 37.304 0.183427 38.1608 0.183427H77.7982C79.8369 0.183427 81.6247 0.314479 83.1355 0.574803L83.0137 0.589859L62.4109 5.75491C62.166 5.75131 61.9239 5.74673 61.6724 5.74673ZM61.0799 19.1222L55.5886 46.318H38.5825L44.8201 15.4949H59.1841C60.2895 15.4949 60.9622 15.7223 61.1981 16.176C61.4358 16.6291 61.3954 17.6121 61.0799 19.1222ZM53.8877 54.7437L27.1281 54.6768C26.313 54.6768 25.6933 54.4234 25.2721 53.9356L38.4493 46.5009H55.5524L53.8877 54.7437ZM53.7333 55.5097C53.417 57.0227 53.0418 58.0046 52.6073 58.4581C52.1729 58.9114 51.4017 59.1377 50.297 59.1377H21.9198L29.3745 54.8655L53.8509 54.9273L53.7333 55.5097ZM16.0526 59.1377L25.1038 54.0309C25.5623 54.577 26.2407 54.8597 27.1281 54.8597L28.9745 54.865L21.2779 59.1377H16.0526ZM24.7255 51.0888L24.582 51.8046C24.4438 52.6502 24.5975 53.3643 25.0243 53.9304L16.0853 58.9783L16.7628 55.6523L24.7255 51.0888ZM24.9403 15.4949H31.8816L24.7768 50.8337L16.8473 55.2356L24.9403 15.4949ZM38.3739 46.392L25.1883 53.8381C24.7835 53.3095 24.641 52.6363 24.7689 51.8363L24.9446 50.9629L24.9463 50.9626L24.9449 50.9607L32.0757 15.4949H44.6264L38.3739 46.392ZM34.4115 2.95419C34.4053 2.97775 34.3951 2.9992 34.3891 3.02292L33.8418 5.74673H23.2231L34.4115 2.95419ZM90.2541 7.41027C90.1159 5.59605 89.5764 4.12246 88.6491 3.03324C87.7224 1.94122 86.349 1.15321 84.5655 0.690316C82.791 0.232518 80.5138 0 77.7982 0H38.1608C37.5604 0 37.0042 0.139556 36.4906 0.392515L15.1337 5.74673H15.3721L36.198 0.548295C36.0442 0.641905 35.8926 0.739896 35.7492 0.857063C35.1126 1.37771 34.6853 2.04103 34.4554 2.81739L22.855 5.74673H15.6979C14.6709 5.74673 13.7611 6.06939 12.973 6.70967C12.1815 7.35385 11.6685 8.16656 11.4315 9.14715L0.0561179 65.3722C-0.10258 66.3552 0.0752817 67.1686 0.59011 67.8092C1.10287 68.4517 1.87218 68.7737 2.89977 68.7737L48.8755 68.8863C52.0342 68.8863 54.7408 68.6219 56.9927 68.0926C59.2426 67.5657 61.1572 66.6767 62.7386 65.4293C63.3444 64.9513 63.9055 64.4133 64.4238 63.8189L78.7768 51.9385C80.1428 50.8533 81.2686 49.4021 82.1248 47.6267C82.9744 45.8597 83.6809 43.6034 84.2239 40.9198L89.6392 14.0727C90.1829 11.4509 90.3899 9.21012 90.2541 7.41027Z" fill="#100953"/>
<path fill-rule="evenodd" clip-rule="evenodd" d="M147.688 51.7006C147.951 52.2114 147.982 52.735 147.78 53.3168C147.649 54.08 147.247 54.7392 146.588 55.2788C146.048 55.7204 145.407 55.9737 144.685 56.0552L137.505 38.9613H137.861C139.451 38.9613 140.926 38.8938 142.286 38.7598L147.688 51.7006ZM147.978 53.3116L148.066 64.119C148.027 64.0071 147.989 63.895 147.933 63.7859L144.76 56.2324C145.497 56.14 146.155 55.8734 146.713 55.4168C147.406 54.8493 147.829 54.1533 147.966 53.3607C147.972 53.3445 147.973 53.3278 147.978 53.3116ZM104.775 53.2147C104.576 54.043 104.139 54.7379 103.478 55.2788C102.818 55.8185 102.048 56.0922 101.19 56.0922H100.07L103.498 38.9613H107.609L104.775 53.2147ZM98.0965 65.8166C98.1175 65.7428 98.1483 65.6752 98.1671 65.5996L100.033 56.2756H101.19C102.095 56.2756 102.906 55.9865 103.602 55.4168C103.742 55.303 103.865 55.1772 103.985 55.0502L98.0965 65.8166ZM102.85 2.28795C102.35 2.80698 102.027 3.42513 101.914 4.14377L101.613 5.63239H98.9955C98.3287 5.63239 97.7182 5.78311 97.1515 6.05323L102.85 2.28795ZM144.913 1.30214C147.606 1.30214 149.866 1.533 151.631 1.98788C152.404 2.18814 153.093 2.45421 153.704 2.77638H153.63L150.717 6.06877C148.984 5.77966 146.951 5.63239 144.615 5.63239H101.807L102.102 4.17615C102.232 3.35134 102.634 2.65743 103.295 2.11666C103.956 1.5757 104.726 1.30214 105.582 1.30214H144.913ZM155.617 4.26795C156.518 5.33053 157.044 6.76957 157.178 8.54456C157.194 8.7615 157.205 8.98552 157.212 9.21476C157.179 9.17433 157.15 9.13098 157.116 9.0912C156.049 7.84377 154.488 6.95611 152.436 6.4268C151.949 6.3021 151.427 6.1923 150.877 6.09661L153.803 2.82823C154.527 3.22373 155.137 3.70281 155.617 4.26795ZM111.097 21.7029L105.563 28.9661L108.356 15.3818H112.388L111.097 21.7029ZM142.127 15.3818C142.87 15.3818 143.42 15.4874 143.789 15.6922L143.185 18.5023C142.918 19.7877 142.599 20.634 142.237 21.0149C141.882 21.3872 141.236 21.5754 140.317 21.5754H111.317L112.582 15.3818H142.127ZM105.513 29.212L105.514 29.2029L111.221 21.7584H140.317C141.292 21.7584 141.985 21.5506 142.379 21.1384C142.77 20.7257 143.095 19.8754 143.372 18.5379L143.959 15.8037C144.057 15.8799 144.14 15.9653 144.201 16.0628C144.476 16.5161 144.456 17.4989 144.141 19.009L142.719 25.5848C142.403 27.097 142.026 28.0778 141.593 28.5308C141.158 28.9846 140.387 29.212 139.283 29.212H105.513ZM158.952 14.0789C158.808 12.1995 158.29 10.6623 157.405 9.46343C157.401 9.1426 157.392 8.82861 157.369 8.53064C157.231 6.71704 156.692 5.2451 155.766 4.15357C154.838 3.06205 153.464 2.27471 151.681 1.81117C149.901 1.35172 147.623 1.1192 144.913 1.1192H105.582C104.679 1.1192 103.868 1.40834 103.17 1.97805C103.118 2.02075 103.079 2.07033 103.03 2.11436L96.4872 6.38867H96.5729C96.4722 6.45853 96.3671 6.5179 96.2695 6.59646C95.4802 7.23999 95.0054 8.05221 94.8479 9.03409L83.3549 65.5996C83.1178 66.5825 83.2752 67.3954 83.8284 68.0371C84.3806 68.6796 85.1711 69 86.1986 69H93.8995C94.9264 69 95.8351 68.6796 96.6254 68.0371C97.215 67.5575 97.6506 66.9821 97.933 66.3112L104.312 54.6497C104.612 54.2352 104.836 53.7724 104.961 53.2516L107.804 38.9613H122.694L134.544 67.4132V67.2989C134.701 67.7526 135.076 68.1497 135.669 68.4904C136.261 68.8297 136.794 69 137.267 69H143.785C144.891 69 145.839 68.6796 146.629 68.0371C147.418 67.3954 147.891 66.6195 148.051 65.7122C148.168 65.3773 148.216 65.0523 148.198 64.736L148.199 64.7383L148.077 52.9179C148.108 52.7085 148.099 52.5041 148.07 52.3021L148.069 52.2317L148.061 52.249C148.025 52.0365 147.966 51.8282 147.862 51.6268L142.482 38.7379C143.747 38.6057 144.915 38.4171 145.977 38.1671C148.229 37.6389 150.143 36.7499 151.725 35.5026C153.305 34.2563 154.587 32.6119 155.576 30.572C156.562 28.5308 157.371 25.9628 158.004 22.8643L158.241 21.7301C158.873 18.7083 159.11 16.1581 158.952 14.0789H158.952Z" fill="#100953"/>
</g>
<defs>
<clipPath id="clip0_751_550">
<rect width="159" height="69" fill="white"/>
</clipPath>
</defs>
</svg>
